<?xml version="1.0" encoding="utf-8"?>
<svg viewBox="0 0 627 894" fill="none" xmlns="http://www.w3.org/2000/svg" xmlns:bx="https://boxy-svg.com">
  <path fill-rule="evenodd" clip-rule="evenodd" d="M464.867 627.566C438.094 650.46 384.655 666.073 323.101 666.073C247.551 666.073 184.229 642.553 167.426 610.921C161.419 629.05 160.072 649.798 160.072 663.052C160.072 663.052 156.114 728.134 201.38 773.401C201.38 749.896 220.435 730.842 243.939 730.842C284.226 730.842 284.181 765.99 284.144 794.506C284.143 795.36 284.142 796.209 284.142 797.051C284.142 840.333 310.595 877.436 348.215 893.075C342.596 881.518 339.444 868.54 339.444 854.825C339.444 813.545 363.679 798.175 391.845 780.311C414.255 766.098 439.155 750.307 456.315 718.629C465.268 702.101 470.352 683.17 470.352 663.052C470.352 650.68 468.43 638.757 464.867 627.566Z" fill="#FF5D01"/>
  <path style="fill: rgb(255, 93, 1); fill-rule: evenodd; transform-origin: 297.515px 388.944px;" transform="matrix(1.082319021225, 1.044492959976, -1.157662987709, 1.199584007263, 28.332948557949, 38.928624988061)" d="M 416.859 388.943 A 119.344 119.344 0 1 1 297.516 269.6 L 297.516 310.176 A 78.767 78.767 0 1 0 376.283 388.943 Z" bx:shape="pie 297.516 388.943 78.767 119.344 90 360 1@96bfd72a"/>
</svg>